<mxfile host="app.diagrams.net" modified="2023-04-12T06:14:12.911Z" agent="Mozilla/5.0 (Windows NT 10.0; Win64; x64) AppleWebKit/537.36 (KHTML, like Gecko) Chrome/111.0.0.0 Safari/537.36" etag="_gW0gSSTFaYczRdOIL5j" version="21.1.6" type="github">
  <diagram name="Page-1" id="hyMsCgIPcJeNSZvqZAOg">
    <mxGraphModel dx="1354" dy="745" grid="1" gridSize="10" guides="1" tooltips="1" connect="1" arrows="1" fold="1" page="1" pageScale="1" pageWidth="850" pageHeight="1100" math="0" shadow="0">
      <root>
        <mxCell id="0" />
        <mxCell id="1" parent="0" />
        <mxCell id="cplB73M7RJZwCSe0u48R-4" style="edgeStyle=orthogonalEdgeStyle;rounded=0;orthogonalLoop=1;jettySize=auto;html=1;exitX=0.5;exitY=0.5;exitDx=0;exitDy=0;exitPerimeter=0;entryX=0;entryY=0.5;entryDx=0;entryDy=0;" edge="1" parent="1" source="cplB73M7RJZwCSe0u48R-1" target="cplB73M7RJZwCSe0u48R-3">
          <mxGeometry relative="1" as="geometry" />
        </mxCell>
        <mxCell id="cplB73M7RJZwCSe0u48R-1" value="staff" style="shape=umlActor;verticalLabelPosition=bottom;verticalAlign=top;html=1;outlineConnect=0;" vertex="1" parent="1">
          <mxGeometry x="90" y="200" width="30" height="60" as="geometry" />
        </mxCell>
        <mxCell id="cplB73M7RJZwCSe0u48R-3" value="" style="ellipse;whiteSpace=wrap;html=1;" vertex="1" parent="1">
          <mxGeometry x="360" y="100" width="120" height="80" as="geometry" />
        </mxCell>
        <mxCell id="cplB73M7RJZwCSe0u48R-5" value="inspektur" style="shape=umlActor;verticalLabelPosition=bottom;verticalAlign=top;html=1;outlineConnect=0;" vertex="1" parent="1">
          <mxGeometry x="100" y="461" width="30" height="60" as="geometry" />
        </mxCell>
        <mxCell id="cplB73M7RJZwCSe0u48R-7" value="Login" style="ellipse;whiteSpace=wrap;html=1;" vertex="1" parent="1">
          <mxGeometry x="280" y="461" width="100" height="40" as="geometry" />
        </mxCell>
        <mxCell id="cplB73M7RJZwCSe0u48R-8" value="Register" style="ellipse;whiteSpace=wrap;html=1;" vertex="1" parent="1">
          <mxGeometry x="280" y="540" width="100" height="40" as="geometry" />
        </mxCell>
        <mxCell id="cplB73M7RJZwCSe0u48R-9" value="Validasi Data" style="ellipse;whiteSpace=wrap;html=1;" vertex="1" parent="1">
          <mxGeometry x="280" y="610" width="100" height="40" as="geometry" />
        </mxCell>
        <mxCell id="cplB73M7RJZwCSe0u48R-14" value="&amp;lt;&amp;lt;include&amp;gt;&amp;gt;" style="endArrow=classic;html=1;rounded=0;dashed=1;align=left;" edge="1" parent="1" source="cplB73M7RJZwCSe0u48R-7" target="cplB73M7RJZwCSe0u48R-8">
          <mxGeometry width="50" height="50" relative="1" as="geometry">
            <mxPoint x="430" y="510" as="sourcePoint" />
            <mxPoint x="480" y="460" as="targetPoint" />
          </mxGeometry>
        </mxCell>
        <mxCell id="cplB73M7RJZwCSe0u48R-15" value="&amp;lt;&amp;lt;include&amp;gt;&amp;gt;" style="endArrow=classic;html=1;rounded=0;dashed=1;align=left;entryX=0.5;entryY=0;entryDx=0;entryDy=0;" edge="1" parent="1" source="cplB73M7RJZwCSe0u48R-8" target="cplB73M7RJZwCSe0u48R-9">
          <mxGeometry width="50" height="50" relative="1" as="geometry">
            <mxPoint x="340" y="511" as="sourcePoint" />
            <mxPoint x="340" y="550" as="targetPoint" />
          </mxGeometry>
        </mxCell>
      </root>
    </mxGraphModel>
  </diagram>
</mxfile>
